<?xml version="1.0" encoding="iso-8859-1"?>
<!-- Generator: Adobe Illustrator 16.0.0, SVG Export Plug-In . SVG Version: 6.00 Build 0)  -->
<!DOCTYPE svg PUBLIC "-//W3C//DTD SVG 1.1//EN" "http://www.w3.org/Graphics/SVG/1.1/DTD/svg11.dtd">
<svg version="1.1" id="Capa_1" xmlns="http://www.w3.org/2000/svg" xmlns:xlink="http://www.w3.org/1999/xlink" x="0px" y="0px"
	 width="481.272px" height="481.272px" viewBox="0 0 481.272 481.272" style="enable-background:new 0 0 481.272 481.272;"
	 xml:space="preserve">
<g>
	<g id="_x34_5_35_">
		<path d="M476.218,88.928L402.699,8.189c-3.896-4.275-9.486-6.576-15.228-6.312H240.637H93.797
			c-5.75-0.264-11.33,2.037-15.223,6.312L5.055,88.928c-5.827,6.4-6.709,15.887-2.161,23.252l119.841,194.024
			c-5.69,14.404-8.817,30.101-8.817,46.525c0,69.965,56.717,126.687,126.686,126.687c0.011,0,0.022,0,0.033,0s0.022,0,0.033,0
			c69.969,0,126.686-56.722,126.686-126.687c0-16.426-3.127-32.121-8.815-46.523L478.38,112.18
			C482.927,104.814,482.045,95.328,476.218,88.928z M314.222,105.59l-73.439,120.457c-0.037,0-0.075-0.002-0.113-0.002
			c-0.011,0-0.022,0-0.033,0c-0.011,0-0.022,0-0.033,0c-0.038,0-0.076,0.002-0.113,0.002L167.053,105.59h73.584H314.222z
			 M43.581,104.235l46.248-50.789L199.267,232.95c-20.992,7.245-39.481,19.85-53.838,36.18L43.581,104.235z M323.566,343.315
			l-33.626,32.776l7.938,46.283c0.65,3.797-0.909,7.633-4.026,9.896c-1.762,1.281-3.85,1.935-5.948,1.935
			c-1.609,0-3.228-0.386-4.708-1.164l-41.562-21.853l-41.563,21.853c-3.41,1.795-7.542,1.496-10.656-0.771
			c-3.117-2.264-4.678-6.1-4.026-9.896l7.938-46.283l-33.626-32.776c-2.758-2.688-3.751-6.71-2.56-10.373
			c1.189-3.662,4.356-6.332,8.168-6.888l46.471-6.752l20.782-42.108c1.703-3.453,5.222-5.642,9.073-5.642
			c3.851,0,7.37,2.188,9.072,5.642l20.783,42.108l46.471,6.752c3.812,0.556,6.979,3.226,8.169,6.888
			C327.316,336.605,326.324,340.627,323.566,343.315z M335.846,269.129c-14.355-16.33-32.847-28.937-53.839-36.18L391.444,53.446
			l46.248,50.789L335.846,269.129z"/>
	</g>
</g>
<g>
</g>
<g>
</g>
<g>
</g>
<g>
</g>
<g>
</g>
<g>
</g>
<g>
</g>
<g>
</g>
<g>
</g>
<g>
</g>
<g>
</g>
<g>
</g>
<g>
</g>
<g>
</g>
<g>
</g>
</svg>
